<?xml version="1.0" encoding="utf-8"?>
<!-- Generator: Adobe Illustrator 16.0.0, SVG Export Plug-In . SVG Version: 6.00 Build 0)  -->
<!DOCTYPE svg PUBLIC "-//W3C//DTD SVG 1.1//EN" "http://www.w3.org/Graphics/SVG/1.1/DTD/svg11.dtd">
<svg version="1.1" id="Layer_1" xmlns="http://www.w3.org/2000/svg" xmlns:xlink="http://www.w3.org/1999/xlink" x="0px" y="0px"
	 width="81.333px" height="34px" viewBox="0 0 81.333 34" enable-background="new 0 0 81.333 34" xml:space="preserve">
<rect x="39.879" y="2.572" fill="#EFF4F9" width="2.408" height="27.972"/>
<rect x="55.657" y="4.106" fill="#EFF4F9" width="2.408" height="26.437"/>
<polygon fill="#EFF4F9" points="50.256,30.787 41.157,23.152 48.663,15.647 50.366,17.351 44.7,23.018 51.827,28.959 "/>
<polygon fill="#EFF4F9" points="4.243,30.544 1.834,30.544 1.834,17.704 10.592,15.256 11.241,17.576 4.243,19.531 "/>
<rect x="16.17" y="17.069" fill="#EFF4F9" width="2.408" height="13.646"/>
<rect x="16.17" y="9.36" fill="#EFF4F9" width="2.408" height="3.221"/>
<path fill="#EFF4F9" d="M30.577,31.922c-2.059,0-4.115-0.781-5.68-2.347c-3.131-3.131-3.131-8.228,0-11.358
	c3.131-3.132,8.227-3.132,11.355,0l-1.703,1.704c-1.061-1.062-2.475-1.646-3.975-1.646c-1.502,0-2.914,0.585-3.977,1.646
	c-2.191,2.191-2.191,5.759,0,7.95c1.062,1.062,2.475,1.646,3.977,1.646c1.5,0,2.914-0.584,3.975-1.646l1.703,1.705
	C34.69,31.141,32.631,31.922,30.577,31.922z"/>
<path fill="#EFF4F9" d="M70.147,31.747c-4.328,0-7.852-3.522-7.852-7.851c0-4.329,3.521-7.853,7.852-7.853
	c3.988,0,7.344,2.984,7.799,6.942l0.051,0.445l-0.963,1.414l-12.197,0.235c0.541,2.433,2.719,4.255,5.311,4.255
	c1.52,0,2.93-0.609,3.969-1.718l1.756,1.648C74.393,30.844,72.305,31.747,70.147,31.747z M70.147,18.454
	c-2.58,0-4.748,1.806-5.305,4.219l10.559-0.203C74.772,20.132,72.637,18.454,70.147,18.454z"/>
</svg>
