<?xml version="1.0" encoding="utf-8"?>
<!-- Generator: Adobe Illustrator 16.0.0, SVG Export Plug-In . SVG Version: 6.00 Build 0)  -->
<!DOCTYPE svg PUBLIC "-//W3C//DTD SVG 1.1//EN" "http://www.w3.org/Graphics/SVG/1.1/DTD/svg11.dtd">
<svg version="1.1" id="Layer_1" xmlns="http://www.w3.org/2000/svg" xmlns:xlink="http://www.w3.org/1999/xlink" x="0px" y="0px"
	 width="97.704px" height="97.704px" viewBox="0 0 97.704 97.704" enable-background="new 0 0 97.704 97.704" xml:space="preserve">
<rect x="48.808" y="31.195" fill="#6FC14F" width="2.922" height="33.925"/>
<rect x="67.945" y="33.055" fill="#6FC14F" width="2.921" height="32.062"/>
<polygon fill="#6FC14F" points="61.395,65.417 50.358,56.157 59.459,47.053 61.527,49.119 54.654,55.993 63.297,63.198 "/>
<polygon fill="#6FC14F" points="5.586,65.12 2.665,65.12 2.665,49.547 13.287,46.579 14.073,49.393 5.586,51.764 "/>
<rect x="20.052" y="48.778" fill="#6FC14F" width="2.921" height="16.553"/>
<rect x="20.052" y="39.427" fill="#6FC14F" width="2.921" height="3.907"/>
<path fill="#6FC14F" d="M37.524,66.793c-2.495,0-4.989-0.949-6.888-2.851c-3.797-3.797-3.797-9.978,0-13.772
	c3.798-3.798,9.978-3.798,13.775,0l-2.066,2.063c-1.287-1.286-3-1.997-4.821-1.997c-1.821,0-3.534,0.711-4.822,1.997
	c-2.659,2.659-2.659,6.983,0,9.646c1.288,1.287,3,1.998,4.822,1.998c1.822,0,3.534-0.709,4.821-1.998l2.066,2.064
	C42.512,65.844,40.018,66.793,37.524,66.793z"/>
<path fill="#6FC14F" d="M85.517,66.581c-5.25,0-9.522-4.271-9.522-9.521c0-5.251,4.271-9.523,9.522-9.523
	c4.839,0,8.905,3.622,9.459,8.418l0.062,0.541l-1.17,1.715l-14.793,0.285c0.657,2.951,3.297,5.162,6.441,5.162
	c1.842,0,3.552-0.74,4.812-2.084l2.129,2C90.667,65.485,88.135,66.581,85.517,66.581z M85.517,50.458
	c-3.13,0-5.759,2.189-6.433,5.117l12.806-0.246C91.125,52.493,88.54,50.458,85.517,50.458z"/>
</svg>
